<svg width="39" height="36" viewBox="0 0 39 36" fill="none" xmlns="http://www.w3.org/2000/svg">
<path d="M12.737 1.52588e-05H24.042L12.306 34.773C12.059 35.506 11.372 35.999 10.598 35.999H1.8C0.806 35.999 0 35.193 0 34.199C0 34.003 0.0320003 33.809 0.0940003 33.623L11.029 1.22701C11.276 0.494015 11.963 1.52588e-05 12.737 1.52588e-05Z" fill="url(#paint0_linear_9_564)"/>
<path d="M29.165 23.324H11.238C10.78 23.323 10.408 23.695 10.407 24.153C10.407 24.384 10.502 24.604 10.671 24.761L22.191 35.513C22.526 35.826 22.968 36 23.427 36H33.578L29.165 23.324Z" fill="#0078D4"/>
<path d="M12.737 1.32422e-05C11.954 -0.00298676 11.261 0.504013 11.025 1.25001L0.108006 33.595C-0.226994 34.529 0.259005 35.559 1.193 35.894C1.389 35.964 1.596 36 1.805 36H10.831C11.515 35.878 12.081 35.397 12.312 34.741L14.489 28.325L22.265 35.578C22.591 35.848 23 35.997 23.423 36H33.537L29.101 23.324L16.17 23.327L24.083 1.32422e-05H12.737Z" fill="url(#paint1_linear_9_564)"/>
<path d="M27.177 1.22501C26.93 0.493015 26.244 1.52588e-05 25.471 1.52588e-05H12.871C13.643 1.52588e-05 14.33 0.493015 14.576 1.22401L25.511 33.623C25.829 34.565 25.323 35.586 24.381 35.904C24.196 35.968 24.002 36 23.806 36H36.406C37.4 36 38.206 35.194 38.206 34.199C38.206 34.003 38.174 33.809 38.111 33.624L27.177 1.22501Z" fill="url(#paint2_linear_9_564)"/>
<defs>
<linearGradient id="paint0_linear_9_564" x1="16.8577" y1="2.66826" x2="5.11706" y2="37.3526" gradientUnits="userSpaceOnUse">
<stop stop-color="#114A8B"/>
<stop offset="1" stop-color="#0669BC"/>
</linearGradient>
<linearGradient id="paint1_linear_9_564" x1="20.5249" y1="18.8308" x2="17.8092" y2="19.7495" gradientUnits="userSpaceOnUse">
<stop stop-opacity="0.3"/>
<stop offset="0.071" stop-opacity="0.2"/>
<stop offset="0.321" stop-opacity="0.1"/>
<stop offset="0.623" stop-opacity="0.05"/>
<stop offset="1" stop-opacity="0"/>
</linearGradient>
<linearGradient id="paint2_linear_9_564" x1="19.1155" y1="1.62451" x2="32.003" y2="35.9604" gradientUnits="userSpaceOnUse">
<stop stop-color="#3CCBF4"/>
<stop offset="1" stop-color="#2892DF"/>
</linearGradient>
</defs>
</svg>
