<svg width="42" height="38" viewBox="0 0 42 38" fill="none" xmlns="http://www.w3.org/2000/svg">
<path d="M35.3805 10.2098C33.5904 10.2098 31.9675 10.8592 30.7761 11.9125L23.2209 6.9767C23.2681 6.79645 23.2957 6.60932 23.2957 6.41579C23.2957 5.08167 22.1103 4 20.6479 4C19.1856 4 18 5.08167 18 6.41579C18 7.75006 19.1856 8.83158 20.6479 8.83158C21.1599 8.83158 21.6364 8.69666 22.0415 8.46711L31.29 14.6076C32.011 13.2355 33.6012 12.1671 35.3805 12.1671C37.8516 12.1671 39.8548 13.9947 39.8548 16.2491C39.8548 18.0508 38.5756 19.5798 36.8006 20.1213L37.4077 22C40.072 21.2189 42 18.9395 42 16.2491C42 12.9138 39.0365 10.2098 35.3805 10.2098Z" fill="#0A7BFF"/>
<path d="M14.6098 4.14553C14.0906 5.67726 14.2698 7.25959 14.9783 8.59301L7.8459 13.5873C7.67908 13.4933 7.49973 13.4139 7.30607 13.3563C5.97054 12.9587 4.54389 13.651 4.11977 14.9023C3.69549 16.1536 4.43429 17.4904 5.76965 17.8878C7.10518 18.2853 8.53182 17.5932 8.95611 16.3419C9.10461 15.9037 9.10782 15.4558 8.99548 15.0408L17.8254 8.95621C16.661 7.93044 16.0529 6.25128 16.5689 4.72873C17.2859 2.61424 19.6966 1.44451 21.9533 2.11626C23.7567 2.65294 24.916 4.2032 24.9434 5.88341L27 5.92361C26.991 3.41113 25.2686 1.08206 22.5756 0.280502C19.2369 -0.713198 15.6704 1.01716 14.6098 4.14553Z" fill="#EB3D00"/>
<path d="M2.57648 20.7512C3.94042 21.7055 5.56956 22.0549 7.1141 21.8536L9.88761 29.801C9.74282 29.919 9.6088 30.053 9.49173 30.2065C8.68541 31.2661 8.93507 32.757 10.0494 33.5365C11.1636 34.3161 12.7205 34.0891 13.5269 33.0295C14.3334 31.9699 14.0837 30.4792 12.9694 29.6995C12.5792 29.4266 12.1347 29.2797 11.6874 29.2461L8.35131 19.4392C6.97263 20.1446 5.11522 20.1453 3.75936 19.1968C1.8766 17.8795 1.45475 15.3603 2.81727 13.5698C3.90621 12.139 5.80496 11.6067 7.48463 12.1226L8.15757 10.3071C5.65542 9.50711 2.80855 10.2896 1.18259 12.4261C-0.833232 15.075 -0.209238 18.8023 2.57648 20.7512Z" fill="#00BCD4"/>
<path d="M35.8671 30.1844C35.3107 28.649 34.1179 27.4551 32.6314 26.7546L35.515 18.7671C35.7206 18.7524 35.9276 18.719 36.1326 18.6599C37.5468 18.2526 38.3247 16.9054 37.8704 15.6512C37.4159 14.3967 35.901 13.71 34.4869 14.1174C33.0727 14.5246 32.2946 15.8718 32.7491 17.1262C32.9084 17.5653 33.1993 17.9328 33.5685 18.2103L29.9343 28.0184C31.6128 28.2179 33.2395 29.2557 33.7924 30.782C34.5604 32.9016 33.2458 35.178 30.8562 35.8663C28.9466 36.4164 26.9283 35.7859 25.8028 34.4287L24 35.5231C25.656 37.5698 28.6714 38.5279 31.5229 37.7065C35.0583 36.6882 37.0032 33.3204 35.8671 30.1844Z" fill="#86C351"/>
<path d="M15.9463 36.7844C17.311 35.7786 18.1514 34.3204 18.4158 32.7645L27.1937 32.6743C27.2681 32.8524 27.3614 33.0255 27.4797 33.1883C28.2954 34.3113 29.8605 34.5555 30.9755 33.734C32.0904 32.9124 32.3329 31.3362 31.5173 30.2132C30.7015 29.0903 29.1365 28.8459 28.0215 29.6675C27.6312 29.9553 27.3503 30.3362 27.1818 30.7572L16.3762 30.7849C16.6654 32.3448 16.1062 34.1374 14.7496 35.137C12.8656 36.5253 10.2209 36.1125 8.84251 34.215C7.74106 32.6987 7.7816 30.6931 8.80355 29.2402L7.19208 28C5.63848 30.1541 5.56217 33.1558 7.20687 35.4201C9.24617 38.2276 13.159 38.8383 15.9463 36.7844Z" fill="#9032E9"/>
</svg>
