<svg width="38" height="38" viewBox="0 0 38 38" fill="none" xmlns="http://www.w3.org/2000/svg">
<path d="M37.2 17.1L20.9 0.8C20.4 0.3 19.7 0 19 0C18.3 0 17.6 0.3 17.1 0.8L13.6 4.3L17.7 8.39999C18.1 8.19999 18.5 8.09999 19 8.09999C20.7 8.09999 22 9.39999 22 11.1C22 11.6 21.9 12 21.7 12.4L25.7 16.4C26.1 16.2 26.5 16.1 27 16.1C28.7 16.1 30 17.4 30 19.1C30 20.8 28.7 22.1 27 22.1C25.3 22.1 24 20.8 24 19.1C24 18.6 24.1 18.2 24.3 17.8L20.3 13.8C20.2 13.8 20.1 13.9 20 13.9V24.3C21.2 24.7 22 25.8 22 27.1C22 28.8 20.7 30.1 19 30.1C17.3 30.1 16 28.8 16 27.1C16 25.8 16.8 24.7 18 24.3V13.8C16.8 13.4 16 12.3 16 11C16 10.5 16.1 10.1 16.3 9.69999L12.2 5.6L0.8 17.1C0.3 17.6 0 18.3 0 19C0 19.7 0.3 20.4 0.8 20.9L17.1 37.2C17.6 37.7 18.3 38 19 38C19.7 38 20.4 37.7 20.9 37.2L37.2 20.9C37.7 20.4 38 19.7 38 19C38 18.3 37.7 17.6 37.2 17.1Z" fill="#F4511E"/>
</svg>
