<svg width="30" height="40" viewBox="0 0 30 40" fill="none" xmlns="http://www.w3.org/2000/svg">
<path d="M14.65 20.899C13.652 19.29 12.928 17.956 11.925 15.444C10.229 11.201 22.24 7.367 17.37 0C19.481 5.089 9.793 8.23499 8.893 12.473C8.07 16.371 14.645 20.899 14.65 20.899Z" fill="#F44336"/>
<path d="M14.878 13.271C14.686 15.787 17.107 17.128 17.177 18.966C17.233 20.462 15.73 21.709 15.73 21.709C15.73 21.709 18.458 21.173 19.309 18.891C20.254 16.357 17.475 14.622 17.761 12.593C18.028 10.655 23.792 7.05 23.792 7.05C23.792 7.05 15.311 7.612 14.878 13.271Z" fill="#F44336"/>
<path d="M23.084 21.056C24.838 20.662 26.317 21.779 26.317 23.066C26.317 25.967 22.296 28.709 22.296 28.709C22.296 28.709 28.521 27.967 28.521 23.204C28.521 20.054 25.464 19.267 23.084 21.056ZM20.129 23.396C20.129 23.396 22.07 22.013 22.587 21.494C17.824 22.505 6.94898 22.641 6.94898 21.763C6.94898 20.954 10.456 20.125 10.456 20.125C10.456 20.125 2.68298 20.013 2.68298 22.306C2.68298 24.696 12.858 24.867 20.129 23.396Z" fill="#1565C0"/>
<path d="M18.935 25.572C14.426 27.071 6.12099 26.592 8.58099 24.579C7.38299 24.579 5.60699 25.542 5.60699 26.468C5.60699 28.325 14.589 29.759 21.237 27.04L18.935 25.572Z" fill="#1565C0"/>
<path d="M9.686 28.74C8.05 28.74 6.991 29.794 6.991 30.562C6.991 32.953 16.751 33.194 20.618 30.767L18.16 29.135C15.271 30.405 8.014 30.58 9.686 28.74Z" fill="#1565C0"/>
<path d="M27.281 32.633C27.281 31.697 26.226 31.256 25.848 31.045C28.076 36.418 3.531 36.001 3.531 32.829C3.531 32.108 5.338 31.402 7.00799 31.736L5.588 30.897C2.26 30.375 0 31.838 0 33.018C0 38.521 27.281 38.256 27.281 32.633Z" fill="#1565C0"/>
<path d="M30 34.605C25.854 38.7 15.341 40.192 4.76898 37.662C15.341 42.165 29.95 39.629 30 34.605Z" fill="#1565C0"/>
</svg>
