<svg width="36" height="41" viewBox="0 0 36 41" fill="none" xmlns="http://www.w3.org/2000/svg">
<path d="M9.19999 29.5113C8.69999 29.8113 1 34.7113 1 35.0113C1 35.4113 1 35.4113 1 35.4113L2.4 39.0113H33.6C33.6 39.0113 35.1 34.2113 35 33.0113C35 32.4113 30 29.1113 30 29.1113C30 29.1113 33.9 25.2113 34 16.7113C34 15.9113 34 15.1113 33.9 14.3113C33.2 4.71135 27.1 1.31136 20.7 1.01136C14.2 0.811356 10.6 3.81135 10.6 3.81135C10.6 3.81135 6.5 5.21135 6.1 8.51135C6.1 8.51135 2.9 9.11135 4.6 15.6113C3.3 16.6113 3 18.0113 3 19.0113C3 20.3113 3.4 21.8113 4.2 22.7113C5.9 24.5113 7.3 24.1113 7.3 24.1113C7.3 24.1113 7.9 27.3113 9.19999 29.5113Z" fill="#FFE0B2"/>
<path d="M30.8 32.9113C30.6 31.6113 30 31.0113 28.7 31.0113H28.6H28.5C28.1 31.1113 27.5 31.3113 25.8 32.5113L24.8 33.2113C24.6 33.1113 24.3 33.0113 24 33.0113C23.5 33.0113 23.1 33.2113 22.7 33.5113L21.7 33.0113L20 32.1113C19.1 31.7113 18.2 31.4113 17.5 31.4113C17 31.4113 16.6 31.5113 16.2 31.7113C15.7 32.1113 15.5 32.7113 15.6 33.5113C15.6 33.9113 15.7 34.4113 15.7 34.8113C15.9 36.9113 16 38.4113 18 38.5113C18.1 38.5113 18.2 38.5113 18.3 38.5113C19.4 38.5113 20.7 38.1113 21.9 37.2113L22.8 36.6113C23.1 36.8113 23.5 37.0113 23.9 37.0113C24.4 37.0113 24.8 36.8113 25.1 36.6113L26.5 36.9113C27.1 37.0113 27.6 37.1113 28.1 37.1113H28.5C29 37.1113 29.5 37.1113 30 36.8113C30.6 36.5113 30.9 35.8113 30.9 34.7113C30.9 34.2113 30.8 33.7113 30.8 33.3113V32.9113Z" fill="#F44336"/>
<path d="M15.7 34.9113C15.7 34.5113 15.6 34.1113 15.6 33.6113C15.5 33.0113 15.6 32.6113 15.8 32.2113C10.8 32.1113 9.2 29.5113 9.2 29.5113C9.2 29.5113 8.9 31.1113 10.3 32.9113C12.4 35.4113 15.6 35.7113 15.6 35.7113H15.8C15.8 35.5113 15.8 35.2113 15.7 34.9113Z" fill="white"/>
<path d="M16.9 39.0113L16.2 37.6113C16.1 37.3113 16 37.0113 15.9 36.5113L15.8 35.8113L15.1 35.7113C14.2 35.5113 12 34.9113 10.4 33.0113C9.89999 32.4113 9.59999 31.7113 9.39999 31.0113L8.99999 29.7113L7.89999 30.4113C5.89999 31.7113 2.59999 33.8113 1.49999 34.7113L0.899994 35.2113L2.39999 39.0113H16.9Z" fill="#546E7A"/>
<path d="M6.2 39.0113H16.9L16.2 37.6113C16.1 37.3113 16 37.0113 15.9 36.5113L15.8 35.8113L15.1 35.7113C14.2 35.5113 12 34.9113 10.4 33.0113C10.3 32.9113 10.2 32.7113 10.1 32.6113L5 36.0113L6.2 39.0113Z" fill="#455A64"/>
<path d="M34.7 32.5113C34.1 31.9113 32.3 30.6113 31.6 30.1113L30.9 29.6113C30.7 29.8113 30.3 30.3113 29.6 30.8113L30.3 31.5113C30.6 31.8113 30.8 32.3113 30.9 32.8113V33.1113C31 33.5113 31 34.0113 31 34.5113C31 36.2113 30.4 36.5113 30.1 36.6113C29.9 36.7113 29.6 36.8113 29.3 36.8113L29.4 38.8113H33.5L33.7 38.1113C34.2 36.5113 34.8 34.2113 34.9 33.2113V32.7113L34.7 32.5113Z" fill="#546E7A"/>
<path d="M33.6 39.0113L33.8 38.3113C34.1 37.5113 34.3 36.4113 34.6 35.5113L30.9 33.5113C30.9 33.8113 31 34.2113 31 34.6113C31 36.3113 30.4 36.6113 30.1 36.7113C29.9 36.8113 29.6 36.9113 29.3 36.9113L29.4 38.9113L33.6 39.0113Z" fill="#455A64"/>
<path d="M4.3 15.8113L4.4 15.7113C4.9 15.3113 5.6 15.0113 6.2 15.0113C6.8 15.0113 7.1 15.2113 7.4 15.3113C8.7 16.0113 9 17.3113 9.1 18.2113V18.3113V18.4113C9.7 18.2113 10.3 18.0113 10.5 17.9113C10.5 17.8113 10.5 17.6113 10.4 17.3113C10.3 16.9113 10.2 16.4113 10 15.9113C9.6 14.8113 9.7 13.4114 10.3 11.6114L10.4 11.4114C10.5 11.0114 10.7 10.6114 10.7 10.3114C10.7 10.0114 10.8 9.71135 10.8 9.61135C10.8 9.31135 10.7 9.11135 10.6 8.81135L10.4 8.31135L10.7 7.81135C11.6 6.31135 14.9 1.31136 21.6 1.31136C21.8 1.31136 22 1.31136 22.3 1.31136H22.1C21.7 1.11136 21.2 1.01136 20.7 1.01136C20.5 1.01136 20.2 1.01136 20 1.01136C14.6 1.01136 11.3 3.31135 10.7 3.71135L10.6 3.81136L10.5 3.91135C9.9 4.11135 6.8 5.41135 6.2 8.11135L6 8.41135L5.6 8.61135C5.2 8.81135 4.9 9.11135 4.7 9.51135C4 10.7114 3.9 12.5114 4.4 15.0113L4.5 15.5113L4.1 16.0113L4 16.1113C4.1 16.0113 4.2 15.9113 4.3 15.8113Z" fill="#616161"/>
<path d="M22 37.0113H28V39.0113H22V37.0113ZM8.2 18.4113C8.1 17.5113 7.8 16.7113 7.1 16.3113C6.8 16.2113 6.6 16.1113 6.3 16.1113C5.8 16.1113 5.2 16.3113 4.7 17.0113L4 15.0113C4.9 14.5113 5.7 14.2113 6.5 14.2113C7 14.2113 7.5 14.3113 8 14.5113C8.4 14.7113 8.8 15.0113 9.1 15.3113C8.9 13.9113 9.2 12.4113 9.6 11.2113C9.8 10.7114 9.9 10.2114 10 9.91135C10.1 9.31135 10 9.21135 9.8 8.91135C7.9 9.11135 6.3 9.61135 6.3 9.61135L5.8 7.71135C5.9 7.71135 7.9 7.11135 10.2 6.91135L10.9 6.81135L11.2 7.41135C11.2 7.41135 11.3 7.51135 11.3 7.61135C11.6 7.91135 12 8.51135 12.1 9.51135C12.1 9.71135 12.1 10.1114 12 10.4114C11.9 10.9113 11.7 11.3113 11.6 11.9113C11.2 13.1113 10.9 14.5113 11.3 15.5113C11.5 16.1113 11.6 16.7113 11.7 17.1113C11.8 17.5113 11.9 18.4113 11.5 18.7113C11.1 19.0113 8.8 19.7113 8.8 19.7113C8.8 19.7113 8.3 19.3113 8.2 18.4113Z" fill="#263238"/>
<path d="M11.5 8.61135L9.69998 7.81135C9.69998 7.71135 13.4 -0.388643 22.7 0.211357L22.6 2.21136C14.6 1.81136 11.5 8.61135 11.5 8.61135Z" fill="#263238"/>
<path d="M16 32.2113C10.9 32.2113 9.2 29.5113 9.2 29.5113C9.2 29.5113 8.9 31.1113 10.3 32.9113C12.4 35.4113 15.6 35.7113 15.6 35.7113" fill="white"/>
<path d="M15.5 36.7113C15.4 36.7113 11.9 36.3113 9.59999 33.5113C7.89999 31.3113 8.19999 29.5113 8.29999 29.3113L8.79999 26.7113L10.2 29.0113C10.3 29.1113 11.7 31.2113 16.1 31.2113V33.2113C14 33.2113 12.4 32.8113 11.2 32.2113C11.2 32.2113 11.2 32.2113 11.2 32.3113C13 34.4113 15.7 34.7113 15.8 34.7113L15.5 36.7113ZM28.7 38.0113C28.6 38.0113 28.5 38.0113 28.4 38.0113C26.6 38.0113 24.9 37.4113 24.8 37.4113L25.5 35.5113C25.5 35.5113 26.9 36.0113 28.3 36.0113H28.4C28.9 36.0113 29.4 36.0113 29.7 35.9113C30 35.7113 30 35.0113 30 34.6113C30 34.2113 29.9 33.7113 29.9 33.3113V33.0113C29.8 32.2113 29.5 31.9113 28.7 31.9113C28.1 32.0113 26.2 33.4113 25.5 33.9113L25 34.3113L23.8 32.7113L24.2 32.4113C26.1 31.0113 27.6 30.0113 28.6 30.0113C30.4 30.0113 31.5 31.0113 31.8 32.8113V33.1113C31.9 33.5113 31.9 34.1113 32 34.6113C32 36.1113 31.6 37.2113 30.6 37.6113C29.9 38.0113 29.3 38.0113 28.7 38.0113Z" fill="#263238"/>
<path d="M18.3 39.6113C18.2 39.6113 18.1 39.6113 18 39.6113C15.1 39.4113 14.9 37.1113 14.8 35.0113C14.8 34.6113 14.7 34.2113 14.7 33.8113C14.5 32.2113 15.2 31.4113 15.7 31.0113C17 30.1113 19 30.5113 20.5 31.2113L23.5 32.8113L22.6 34.6113L19.6 33.0113C18.4 32.4113 17.2 32.3113 16.9 32.6113C16.7 32.8113 16.7 33.2113 16.7 33.5113C16.8 33.9113 16.8 34.4113 16.8 34.8113C17 37.2113 17.2 37.5113 18.2 37.6113C20.3 37.8113 22.4 35.8113 22.4 35.7113L23.8 37.1113C23.6 37.3113 21.2 39.6113 18.3 39.6113ZM15 11.4113C15 11.4113 14.8 12.0113 14.4 12.0113C14.2 12.0113 14 11.6113 14 11.2113C14 10.0114 14.8 8.51135 15.6 7.81135C16.2 7.31135 17 7.01135 17.9 7.01135C18.3 7.01135 18.8 7.01135 19.2 7.21135C19.7 7.41135 20 7.81135 20 8.61135C20 8.61135 20 9.01135 18.7 9.01135C17.9 9.01135 16.9 9.11135 16.5 9.51135C16.1 9.91135 15.5 10.3113 15 11.4113ZM20.4 17.0113C19.9 17.0113 19.3 16.9113 18.8 16.8113C18.2 16.7113 17.9 16.1113 18.1 15.6113L18.3 15.3113C18.4 15.1113 18.6 15.0113 18.8 15.0113C18.9 15.0113 19 15.0113 19.1 15.0113C19.9 15.2113 21.1 15.2113 21.5 15.2113C21 13.3113 21.1 11.9113 21.4 11.9113C21.7 11.9113 22.5 14.2113 22.9 14.7113C23.3 15.2113 23.2 15.8113 22.8 16.2113C22.1 16.8113 21.3 17.0113 20.4 17.0113ZM30.4 17.0113C30.2 17.0113 30.1 17.0113 29.9 17.0113C29.3 16.9113 29 16.5113 29 15.9113C29 15.9113 29.1 15.0113 29.6 15.0113C30 15.0113 30.5 15.2113 30.7 15.2113C30.5 14.0113 30.2 12.0113 30.5 12.0113C30.8 12.0113 31.5 14.4113 32.9 15.3113C33.3 15.6113 33.3 16.2113 32.7 16.6113C31.9 16.9113 31.2 17.0113 30.4 17.0113ZM32.3 10.5114C32.1 9.71135 31.2 9.01135 30.2 8.71135C28.9 8.41135 28 9.01135 28 9.01135C28 8.11135 28.7 7.41135 29 7.31135C29.4 7.11135 29.6 7.01135 30 7.01135C32.1 7.01135 32.9 8.31135 33.6 9.61135L32.3 10.5114Z" fill="#263238"/>
<path d="M25.9 23.0113C25.8 23.0113 25.6 23.0113 25.5 23.0113C24.8 23.0113 24.2 22.8113 23.8 22.3113C23 21.4113 22.9 20.2113 23.2 20.0113C23.5 19.8113 23.7 20.5113 24.7 20.8113C24.7 20.8113 25.4 20.9113 25.6 20.9113C25.8 20.9113 25.9 20.9113 26.1 20.9113C27.4 20.9113 28.5 20.6113 28.9 20.3113C29 20.2113 29 20.0113 29 20.0113C29 20.0113 29 19.7113 27.7 18.5113C26.4 17.3113 26 15.8113 26 14.5113C26 13.0113 26.2 12.0113 26.4 12.0113C26.7 12.0113 27 15.2113 29.1 17.0113C30.6 18.3113 31 19.2113 31 20.1113C31 21.0113 30.5 21.5113 30.2 21.8113C29.1 22.8113 27.3 23.0113 25.9 23.0113ZM25.4 26.0113C22.3 25.9113 20.7 24.0113 20.7 24.0113C20.7 24.0113 24.2 24.3113 26.5 24.3113V26.0113H25.4ZM27.6 26.0113V25.1113V24.2113C27.8 24.1113 29.4 24.3113 31.2 23.6113C30.8 25.7113 27.7 26.0113 27.6 26.0113ZM23.1 29.0113C20.9 29.0113 19.8 28.4113 19 25.8113C19 25.8113 18.9 25.6113 19.2 25.5113C19.5 25.4113 19.6 25.6113 19.6 25.6113C20 26.7113 21.7 27.0113 23.8 27.0113C23.9 27.0113 24 27.0113 24.1 27.0113C25.1 27.0113 27.1 27.0113 27.1 27.0113C27.1 27.0113 26.7 29.0113 24.6 29.0113C24.3 29.0113 23.3 29.0113 23.1 29.0113Z" fill="#263238"/>
<path d="M23 33.0113C19.8 33.0113 17.3 32.0113 14.6 29.1113C13.1 27.5113 13.1 25.4113 13.3 25.2113C13.5 25.0113 13.8 26.4113 15 27.7113C17.4 30.3113 20.8 31.1113 23.7 30.9113C27.5 30.6113 29.1 28.4113 29.4 28.2113L31.1 29.4113C31 29.5113 28.7 32.5113 23.9 32.9113C23.5 33.0113 23.3 33.0113 23 33.0113ZM7.39999 25.0113L7.29999 24.0113L7.19999 23.0113C7.19999 23.0113 7.39999 22.9113 7.79999 22.6113C8.09999 22.4113 8.39999 22.4113 8.69999 22.6113L9.19999 23.0113C9.49999 23.3113 9.49999 23.8113 9.19999 24.1113C8.29999 24.9113 7.49999 25.0113 7.39999 25.0113ZM6.99999 19.0113L8.59999 19.6113C8.49999 19.2113 7.99999 17.4113 6.59999 17.0113C6.19999 16.9113 5.49999 17.2113 5.39999 17.9113C5.39999 17.9113 5.39999 18.1113 5.39999 18.2113V18.3113C5.49999 20.0113 6.99999 21.0113 6.99999 21.0113V19.0113Z" fill="#263238"/>
<path d="M24 38.0113C22.3 38.0113 21 36.7113 21 35.0113C21 33.3113 22.3 32.0113 24 32.0113C25.7 32.0113 27 33.3113 27 35.0113C27 36.7113 25.7 38.0113 24 38.0113ZM24 34.0113C23.5 34.0113 23 34.4113 23 35.0113C23 35.6113 23.4 36.0113 24 36.0113C24.6 36.0113 25 35.6113 25 35.0113C25 34.4113 24.6 34.0113 24 34.0113Z" fill="#263238"/>
<path d="M33.6 40.0113H2.4C2 40.0113 1.6 39.8113 1.5 39.4113L0.0999998 35.9113C-9.68575e-08 35.6113 0 35.5113 0 35.3113V34.9113C0.0999999 33.9113 5.7 30.4113 7.89999 29.1113C7.19999 27.6113 6.7 26.0113 6.5 25.0113C5.7 24.9113 4.7 24.5113 3.5 23.3113C2.4 22.2113 2 20.3113 2 19.0113C2 18.1113 2.2 16.6113 3.4 15.3113C2.8 12.6113 2.9 10.5113 3.8 9.11135C4.2 8.41135 4.7 8.11135 5.1 7.81135C5.9 4.71135 9.19999 3.31135 9.99999 2.91135C10.8 2.31136 14.5 -0.188643 20.7 0.0113566C29.1 0.311356 34.3 5.51135 34.9 14.2113C35 15.0113 35 15.8113 35 16.6113C35 23.1113 32.7 27.1113 31.5 28.7113C36 31.8113 36 32.3113 36 32.8113C36.1 34.1113 34.9 38.0113 34.5 39.2113C34.4 39.7113 34 40.0113 33.6 40.0113ZM3.1 38.0113H32.8C33.4 36.1113 33.9 34.1113 34 33.3113C33.4 32.7113 31.3 31.1113 29.4 29.9113C29.2 29.7113 29 29.5113 29 29.2113C29 28.9113 29.1 28.6113 29.3 28.4113C29.3 28.4113 32.9 24.7113 33 16.7113C33 16.0113 33 15.2113 32.9 14.4113C32.2 4.01135 24.9 2.21136 20.6 2.01136C14.6 1.81136 11.2 4.51135 11.1 4.61135C11 4.71135 10.9 4.71135 10.8 4.81135C10.8 4.81135 7.3 6.01135 7 8.71135C6.9 9.11135 6.6 9.51135 6.2 9.61135C5.5 9.81135 4.4 11.3113 5.5 15.5113C5.6 15.9113 5.5 16.3113 5.2 16.5113C4.2 17.3113 4.1 18.5113 4.1 19.1113C4.1 20.3113 4.5 21.5113 5.1 22.1113C6.3 23.4113 7.2 23.2113 7.2 23.2113C7.49999 23.1113 7.79999 23.2113 7.99999 23.3113C8.19999 23.5113 8.39999 23.7113 8.39999 24.0113C8.39999 24.0113 8.89999 27.1113 10.2 29.1113C10.3 29.3113 10.4 29.6113 10.3 29.9113C10.2 30.2113 10.1 30.4113 9.79999 30.5113C9.09999 30.9113 3.5 34.5113 2.1 35.5113L3.1 38.0113Z" fill="#263238"/>
</svg>
