<svg width="48" height="48" viewBox="0 0 48 48" fill="none" xmlns="http://www.w3.org/2000/svg">
<path d="M24.0006 31.8377L15.8408 24L24.0006 16.1623V0L0.696725 22.384C-0.232242 23.2766 -0.232242 24.7234 0.696725 25.616L24.0006 48C24.0006 48 27.5701 45.7143 27.5701 40C27.3854 36.9676 26.1258 34.0872 24.0006 31.8377Z" fill="#2684FF"/>
<path d="M17.1151 22.4766L17.271 22.6263L24.0006 16.1623V0L11.3873 12.1143C12.3357 15.9845 14.3087 19.5539 17.1151 22.4766Z" fill="#1D78F2"/>
<path d="M18.8368 20.8971L18.9558 21.0114L24.003 16.1634V0L13.4516 10.1326C14.1132 14.1491 15.9854 17.8914 18.8368 20.8971Z" fill="#126AE5"/>
<path d="M24.0006 16.1623V0L15.6718 8C15.8542 12.246 17.6149 16.2885 20.6346 19.3943L24.0006 16.1623Z" fill="#0B60DA"/>
<path d="M18.0515 8C18.0515 13.424 22.1052 17.5669 22.317 17.7783L24.0006 16.1623V0L18.2633 5.51086C18.121 6.3335 18.0501 7.16608 18.0515 8Z" fill="#0154CE"/>
<path d="M24.0006 16.1623L32.1592 24L24.0006 31.8377V48L47.3033 25.616C48.2322 24.7234 48.2322 23.2766 47.3033 22.384L24.0006 0C24.0006 0 20.4311 2.28571 20.4311 8C20.6158 11.0324 21.8754 13.9128 24.0006 16.1623Z" fill="#2482FD"/>
<path d="M30.8849 25.5234L30.729 25.3737L24.0006 31.8377V48L36.6127 35.8857C35.6643 32.0155 33.6913 28.4461 30.8849 25.5234Z" fill="#1D78F2"/>
<path d="M29.1632 27.1029L29.0443 26.9886L23.9982 31.8366V48L34.5472 37.8674C33.8855 33.8512 32.0138 30.109 29.1632 27.1029Z" fill="#126AE5"/>
<path d="M24.0006 31.8377V48L32.3294 40C32.1468 35.7539 30.3856 31.7113 27.3654 28.6057L24.0006 31.8377Z" fill="#0B60DA"/>
<path d="M29.9497 40C29.9497 34.576 25.896 30.4331 25.683 30.2217L24.0006 31.8377V48L29.7379 42.4891C29.8796 41.6664 29.9505 40.8339 29.9497 40Z" fill="#0154CE"/>
<path d="M24.0006 31.8377L15.8408 24H2.58377V27.4286L24.0006 48C24.0006 48 27.5701 45.7143 27.5701 40C27.3854 36.9676 26.1258 34.0872 24.0006 31.8377Z" fill="#2684FF"/>
</svg>
