<svg width="30" height="28" viewBox="0 0 30 28" fill="none" xmlns="http://www.w3.org/2000/svg">
<path d="M15 0L9.99167 4.93889L4.975 9.87L0 14.7778V0H15Z" fill="#0D91D6"/>
<path d="M15 0H14.9667L9.975 4.92333L4.96667 9.86222L0 14.7544V14.7778V14.8478V28L7.24167 21.2411L12.3917 16.4344L17.55 11.62L22.7083 6.80556L30 0H15Z" fill="#F88909"/>
<path d="M7.24167 21.2411L0 28V14.8478L7.24167 21.2411Z" fill="#C757BC"/>
<path d="M12.3917 16.4344L7.24167 21.2411L0 14.8478V14.7778L4.975 9.87L12.3917 16.4344Z" fill="#D3638F"/>
<path d="M17.55 11.62L12.3917 16.4344L4.97501 9.87L9.99167 4.93889L17.55 11.62Z" fill="#E07063"/>
<path d="M22.7083 6.80556L17.55 11.62L9.99167 4.93889L15 0L22.7083 6.80556Z" fill="#EC7D36"/>
<path d="M30 0L22.7083 6.80556L15 0H30Z" fill="#F88909"/>
<path d="M4.59167 10.2278L1.65833 13.1289L0 11.6667V6.17555L4.59167 10.2278Z" fill="#0095D5"/>
<path d="M7.525 7.32667L4.59167 10.2278L0 6.17556V0.676666L7.525 7.32667Z" fill="#2B88DA"/>
<path d="M10.4667 4.43333L7.525 7.32667L0 0.676667V0H5.44167L10.4667 4.43333Z" fill="#557BDE"/>
<path d="M13.4 1.53222L10.4667 4.43333L5.44168 0H15L13.4 1.53222Z" fill="#806EE3"/>
<path d="M14.1667 14.7778L0 28H2.79167H9.6H28.3333L14.1667 14.7778Z" fill="#0095D5"/>
<path d="M16.4 28H9.60002L4.80002 23.5278L8.20002 20.3544L16.4 28Z" fill="#2B88DA"/>
<path d="M23.2167 28H16.4L8.20001 20.3544L11.6 17.1811L23.2167 28Z" fill="#557BDE"/>
<path d="M30 28H23.2167L11.6 17.1811L15 14L30 28Z" fill="#806EE3"/>
</svg>
