<svg width="38" height="38" viewBox="0 0 38 38" fill="none" xmlns="http://www.w3.org/2000/svg">
<path d="M20 24C20 26.2 21.8 28 24 28H34C36.2 28 38 26.2 38 24C38 21.8 36.2 20 34 20H24C21.8 20 20 21.8 20 24Z" fill="#F5BC00"/>
<path d="M20 30V34C20 36.2 21.8 38 24 38C26.2 38 28 36.2 28 34C28 31.8 26.2 30 24 30H20Z" fill="#F5BC00"/>
<path d="M14 20C11.8 20 10 21.8 10 24V34C10 36.2 11.8 38 14 38C16.2 38 18 36.2 18 34V24C18 21.8 16.2 20 14 20Z" fill="#F55376"/>
<path d="M8 20H4C1.8 20 0 21.8 0 24C0 26.2 1.8 28 4 28C6.2 28 8 26.2 8 24V20Z" fill="#F55376"/>
<path d="M18 14C18 11.8 16.2 9.99999 14 9.99999H4C1.8 9.99999 0 11.8 0 14C0 16.2 1.8 18 4 18H14C16.2 18 18 16.2 18 14Z" fill="#00B3D7"/>
<path d="M18 8V4C18 1.8 16.2 0 14 0C11.8 0 10 1.8 10 4C10 6.2 11.8 8 14 8H18Z" fill="#00B3D7"/>
<path d="M24 18C26.2 18 28 16.2 28 14V4C28 1.8 26.2 0 24 0C21.8 0 20 1.8 20 4V14C20 16.2 21.8 18 24 18Z" fill="#00B569"/>
<path d="M30 18H34C36.2 18 38 16.2 38 14C38 11.8 36.2 9.99999 34 9.99999C31.8 9.99999 30 11.8 30 14V18Z" fill="#00B569"/>
</svg>
