<svg width="36" height="36" viewBox="0 0 36 36" fill="none" xmlns="http://www.w3.org/2000/svg">
<path d="M0 4C0 1.791 1.791 0 4 0H32C34.209 0 36 1.791 36 4V32C36 34.208 34.209 36 32 36H4C1.791 36 0 34.208 0 32V4Z" fill="#FF6D00"/>
<path d="M0 4V15.967L4 19.967C4 19.967 15.153 32.848 24 24C32.847 15.152 20.019 5 20.019 5L15.014 0H4C1.791 0 0 1.79 0 4Z" fill="#E64A19"/>
<path d="M20.019 5C31.448 12.698 27.751 21.187 27.751 21.187C27.751 21.187 31.001 24.821 29.687 28C29.687 28 28.347 25.774 26.099 25.774C23.933 25.774 22.659 28 18.299 28C8.591 28 4 19.967 4 19.967C12.747 25.667 18.719 21.63 18.719 21.63C14.778 19.364 6 8 6 8C13.299 14.155 17 16 17 16C15.118 14.458 9 7 9 7C13.224 11.238 22.307 17.378 22.307 17.378C24.691 10.834 20.019 5 20.019 5Z" fill="white"/>
</svg>
