<svg width="40" height="40" viewBox="0 0 40 40" fill="none" xmlns="http://www.w3.org/2000/svg">
<path d="M40 6.787V33.19C40 34.337 39.347 35.383 38.316 35.886C35.968 37.03 31.924 38.999 31.266 39.299C30.33 39.727 29.742 40.006 29.007 40.006C28.272 40.006 27.786 39.527 27.448 39.17C27.11 38.812 30 29.006 30 29.006V2.236C30 2.236 26.818 1.57 27.42 0.899C28.023 0.228 28.527 0 29.156 0C29.881 0 30.467 0.323 31.127 0.641C31.595 0.866 35.859 2.912 38.301 4.084C39.342 4.583 40 5.633 40 6.787Z" fill="url(#paint0_linear_9_514)"/>
<path d="M0 28.006C0 29.934 0.261 30.22 2.134 31.034C3.59 31.667 4.17 32.006 4.559 32.006C5.028 32.006 5.469 31.683 5.886 31.342C6.303 31.001 30 11.531 30 11.531V1.552C30 0.353999 28.326 -0.124001 27.533 0.773998C27.533 0.773998 2.742 28.305 2 29.018C1.258 29.731 1.767 27.125 0 28.006Z" fill="url(#paint1_linear_9_514)"/>
<path d="M0.619999 9.687C0.936999 9.535 3.554 8.365 3.876 8.224C4.254 8.059 4.39 8.006 4.669 8.006C4.977 8.006 5.187 8.123 5.67 8.52C6.345 9.074 30 28.489 30 28.489V38.248C30 39.923 28.256 40.095 27.272 38.989C26.574 38.205 2.389 11.44 2.389 11.44C2.389 11.44 0 12.647 0 11.593C0 10.172 0.276 9.853 0.619999 9.687Z" fill="url(#paint2_linear_9_514)"/>
<path d="M5 14.329V25.741C5 25.741 2.27 28.74 1.66 29.4C1.118 29.987 0 29.803 0 28.154V11.434C0 10.183 1.131 10.056 2.098 11.111C2.273 11.302 5 14.329 5 14.329Z" fill="url(#paint3_linear_9_514)"/>
<defs>
<linearGradient id="paint0_linear_9_514" x1="33.672" y1="-0.314" x2="33.672" y2="40.493" gradientUnits="userSpaceOnUse">
<stop stop-color="#C391F7"/>
<stop offset="1" stop-color="#B579F4"/>
</linearGradient>
<linearGradient id="paint1_linear_9_514" x1="0.598" y1="34.17" x2="33.92" y2="0.847996" gradientUnits="userSpaceOnUse">
<stop offset="0.019" stop-color="#742FB6"/>
<stop offset="0.32" stop-color="#702DB5"/>
<stop offset="0.364" stop-color="#5D2596"/>
<stop offset="0.38" stop-color="#5D2596"/>
<stop offset="0.48" stop-color="#5D2596"/>
<stop offset="0.485" stop-color="#60279A"/>
<stop offset="0.517" stop-color="#6F2DAB"/>
<stop offset="0.556" stop-color="#7932B6"/>
<stop offset="0.61" stop-color="#7E34BD"/>
<stop offset="0.762" stop-color="#8035BF"/>
<stop offset="0.806" stop-color="#7D34BB"/>
<stop offset="0.851" stop-color="#7530AE"/>
<stop offset="0.897" stop-color="#66299A"/>
<stop offset="0.943" stop-color="#52207D"/>
<stop offset="0.963" stop-color="#481B6E"/>
</linearGradient>
<linearGradient id="paint2_linear_9_514" x1="0.405" y1="21.419" x2="31.886" y2="26.118" gradientUnits="userSpaceOnUse">
<stop offset="0.002" stop-color="#9C55D4"/>
<stop offset="0.003" stop-color="#9C55D4"/>
<stop offset="0.337" stop-color="#9751D2"/>
<stop offset="0.737" stop-color="#8847CB"/>
<stop offset="0.848" stop-color="#8343C8"/>
<stop offset="0.89" stop-color="#8042C3"/>
<stop offset="0.938" stop-color="#773DB6"/>
<stop offset="0.988" stop-color="#68369F"/>
<stop offset="1" stop-color="#643499"/>
</linearGradient>
<linearGradient id="paint3_linear_9_514" x1="2.5" y1="30.163" x2="2.5" y2="10.805" gradientUnits="userSpaceOnUse">
<stop stop-color="#5C1D9C"/>
<stop offset="1" stop-color="#561B90"/>
</linearGradient>
</defs>
</svg>
