<svg width="40" height="40" viewBox="0 0 40 40" fill="none" xmlns="http://www.w3.org/2000/svg">
<path d="M39.9857 7.05954V32.8395C39.9857 34.1095 39.1957 35.2395 38.0057 35.6595L29.1857 39.7995L29.9857 28.9495V10.9495L29.1857 0.0995483L38.0057 4.23955C39.1957 4.65955 39.9857 5.78954 39.9857 7.05954Z" fill="#29B6F6"/>
<path d="M4.98576 29.8455L29.9857 10.9495V1.30256C29.9857 0.104556 28.5037 -0.455444 27.7107 0.442556L0.64376 25.1885C-0.256239 26.0185 -0.205239 27.4555 0.75076 28.2205C0.75076 28.2205 2.07476 29.4525 2.55376 29.7945C3.28976 30.3195 4.25676 30.3795 4.98576 29.8455Z" fill="#0277BD"/>
<path d="M4.98576 10.0535L29.9857 28.9495V38.5965C29.9857 39.7945 28.5037 40.3545 27.7107 39.4565L0.64376 14.7105C-0.256239 13.8805 -0.205239 12.4435 0.75076 11.6785C0.75076 11.6785 2.07476 10.4465 2.55376 10.1045C3.28976 9.57955 4.25676 9.51955 4.98576 10.0535Z" fill="#0288D1"/>
</svg>
