<svg width="174" height="49" viewBox="0 0 174 49" fill="none" xmlns="http://www.w3.org/2000/svg">
<path d="M73.2167 17.8396H63.3948L61.5855 22.9413H58.4839L66.6257 0.131657H70.0181L78.1276 22.9413H75.026L73.2167 17.8396ZM72.3767 15.4039L68.3058 3.81806L64.2349 15.4039H72.3767Z" fill="#112251"/>
<path d="M84.6162 0V22.9413H81.6761V0H84.6162Z" fill="#112251"/>
<path d="M112.469 0.164571V22.9413H109.529V5.95749L102.098 22.9413H100.03L92.5672 5.92458V22.9413H89.627V0.164571H92.7933L101.064 18.9916L109.335 0.164571H112.469Z" fill="#112251"/>
<path d="M66.9165 25.8612C69.372 25.8612 71.4936 26.333 73.2813 27.2766C75.0906 28.1982 76.4691 29.5257 77.4168 31.2592C78.3861 32.9927 78.8707 35.0334 78.8707 37.3813C78.8707 39.7291 78.3861 41.7698 77.4168 43.5033C76.4691 45.2149 75.0906 46.5314 73.2813 47.453C71.4936 48.3527 69.372 48.8025 66.9165 48.8025H59.9055V25.8612H66.9165ZM66.9165 46.3339C69.8243 46.3339 72.0428 45.555 73.5721 43.997C75.1014 42.4171 75.866 40.2119 75.866 37.3813C75.866 34.5287 75.0906 32.3015 73.5398 30.6996C72.0105 29.0978 69.8027 28.2969 66.9165 28.2969H62.8456V46.3339H66.9165Z" fill="#112251"/>
<path d="M85.6889 25.8612V48.8025H82.7488V25.8612H85.6889Z" fill="#112251"/>
<path d="M107.759 32.5099C107.134 31.1714 106.23 30.1401 105.045 29.416C103.86 28.6699 102.482 28.2969 100.909 28.2969C99.337 28.2969 97.9154 28.6699 96.6446 29.416C95.3953 30.1401 94.4045 31.1934 93.6722 32.5758C92.9614 33.9362 92.606 35.5161 92.606 37.3154C92.606 39.1147 92.9614 40.6946 93.6722 42.0551C94.4045 43.4155 95.3953 44.4688 96.6446 45.2149C97.9154 45.939 99.337 46.301 100.909 46.301C103.106 46.301 104.916 45.6318 106.337 44.2933C107.759 42.9547 108.588 41.1445 108.825 38.8624H99.8432V36.4267H111.959V38.7307C111.787 40.6178 111.205 42.3513 110.214 43.9312C109.224 45.4891 107.92 46.7289 106.305 47.6505C104.69 48.5502 102.891 49 100.909 49C98.8201 49 96.9139 48.5063 95.1907 47.5189C93.4676 46.5095 92.0998 45.1161 91.0875 43.3387C90.0967 41.5614 89.6013 39.5536 89.6013 37.3154C89.6013 35.0772 90.0967 33.0695 91.0875 31.2921C92.0998 29.4928 93.4676 28.0994 95.1907 27.112C96.9139 26.1026 98.8201 25.5979 100.909 25.5979C103.3 25.5979 105.411 26.2014 107.242 27.4082C109.094 28.6151 110.44 30.3156 111.281 32.5099H107.759Z" fill="#112251"/>
<path d="M118.786 25.8612V48.8025H115.846V25.8612H118.786Z" fill="#112251"/>
<path d="M137.658 25.8612V28.2969H131.519V48.8025H128.579V28.2969H122.408V25.8612H137.658Z" fill="#112251"/>
<path d="M154.588 43.7008H144.766L142.957 48.8025H139.855L147.997 25.9929H151.39L159.499 48.8025H156.397L154.588 43.7008ZM153.748 41.2651L149.677 29.6793L145.606 41.2651H153.748Z" fill="#112251"/>
<path d="M165.988 46.3669H173.871V48.8025H163.048V25.8612H165.988V46.3669Z" fill="#112251"/>
<path d="M40.5086 0.0540609C43.5005 0.0676219 46.1122 0.68111 48.3439 1.89453C50.6025 3.10807 52.3333 4.78716 53.5365 6.93182C54.7396 9.07648 55.3349 11.5125 55.3224 14.2399C55.3101 16.9406 54.6925 19.3712 53.4697 21.5316C52.2468 23.692 50.5005 25.3954 48.2306 26.6419C45.9878 27.8618 43.3705 28.465 40.3787 28.4514L28.4517 28.3973L28.5816 0L40.5086 0.0540609ZM39.6064 20.5061C41.6279 20.5153 43.2342 19.9744 44.4252 18.8834C45.6161 17.7925 46.2163 16.2309 46.2256 14.1987C46.2349 12.1665 45.649 10.5996 44.4681 9.49787C43.2872 8.39618 41.6859 7.84075 39.6644 7.83158L37.5216 7.82187L37.4636 20.4964L39.6064 20.5061Z" fill="#112251"/>
<path d="M15.6952 48.9511C12.5267 48.9389 9.76041 48.3264 7.39641 47.1138C5.00387 45.901 3.17003 44.2223 1.89489 42.0778C0.619743 39.9333 -0.0118302 37.4971 0.000167757 34.7691C0.0120481 32.068 0.665029 29.6367 1.95911 27.4754C3.25319 25.314 5.10191 23.6095 7.50527 22.3618C9.87997 21.1407 12.6516 20.5363 15.8202 20.5486L28.4516 20.5975L28.3267 49L15.6952 48.9511ZM16.6416 28.495C14.5007 28.4867 12.7998 29.0284 11.539 30.1201C10.2781 31.2117 9.64326 32.7738 9.63432 34.8064C9.62538 36.839 10.2465 38.406 11.4977 39.5073C12.7489 40.6087 14.4449 41.1636 16.5858 41.1718L18.8552 41.1806L18.911 28.5038L16.6416 28.495Z" fill="#112251"/>
<path d="M27.54 12.6458C29.8845 12.6218 32.1835 13.2936 34.1462 14.5762C36.1089 15.8588 37.6472 17.6945 38.5666 19.8514C39.486 22.0082 39.7452 24.3893 39.3114 26.6934C38.8776 28.9975 37.7702 31.1213 36.1294 32.7961C34.4887 34.4709 32.3881 35.6216 30.0933 36.1026C27.7986 36.5837 25.4127 36.3734 23.2374 35.4986C21.0622 34.6237 19.1951 33.1234 17.8725 31.1875C16.5499 29.2515 15.831 26.9668 15.8068 24.6224C15.7524 17.9324 20.882 12.697 27.54 12.6458Z" fill="#45D097"/>
<path d="M27.5885 17.3875C28.9952 17.3731 30.3746 17.7762 31.5522 18.5457C32.7298 19.3153 33.6528 20.4167 34.2045 21.7108C34.7561 23.0049 34.9116 24.4336 34.6513 25.816C34.3911 27.1985 33.7266 28.4728 32.7422 29.4777C31.7577 30.4826 30.4974 31.173 29.1205 31.4616C27.7436 31.7502 26.3121 31.6241 25.007 31.0991C23.7018 30.5742 22.5816 29.674 21.788 28.5125C20.9944 27.3509 20.5631 25.9801 20.5486 24.5734C20.5159 20.5594 23.5937 17.4182 27.5885 17.3875Z" fill="white"/>
</svg>
