<svg width="32" height="37" viewBox="0 0 32 37" fill="none" xmlns="http://www.w3.org/2000/svg">
<path d="M4 23.0687C4 24.1687 3.1 25.0687 2 25.0687C0.899999 25.0687 0 24.1687 0 23.0687V14.0687C0 12.9687 0.899999 12.0687 2 12.0687C3.1 12.0687 4 12.9687 4 14.0687V23.0687ZM32 23.0687C32 24.1687 31.1 25.0687 30 25.0687C28.9 25.0687 28 24.1687 28 23.0687V14.0687C28 12.9687 28.9 12.0687 30 12.0687C31.1 12.0687 32 12.9687 32 14.0687V23.0687ZM14 34.0687C14 35.1687 13.1 36.0687 12 36.0687C10.9 36.0687 9.99999 35.1687 9.99999 34.0687V25.0687C9.99999 23.9687 10.9 23.0687 12 23.0687C13.1 23.0687 14 23.9687 14 25.0687V34.0687ZM22 34.0687C22 35.1687 21.1 36.0687 20 36.0687C18.9 36.0687 18 35.1687 18 34.0687V25.0687C18 23.9687 18.9 23.0687 20 23.0687C21.1 23.0687 22 23.9687 22 25.0687V34.0687Z" fill="#7CB342"/>
<path d="M6 12.0687V27.0687C6 28.1687 6.9 29.0687 8 29.0687H24C25.1 29.0687 26 28.1687 26 27.0687V12.0687H6ZM16 2.06875C10 2.06875 6.3 5.66875 6 10.0687H26C25.7 5.66875 22 2.06875 16 2.06875ZM12 7.66875C11.4 7.66875 11 7.26875 11 6.66875C11 6.06875 11.4 5.66875 12 5.66875C12.6 5.66875 13 6.06875 13 6.66875C13 7.16875 12.6 7.66875 12 7.66875ZM20 7.66875C19.4 7.66875 19 7.26875 19 6.66875C19 6.06875 19.4 5.66875 20 5.66875C20.6 5.66875 21 6.06875 21 6.66875C21 7.16875 20.6 7.66875 20 7.66875Z" fill="#7CB342"/>
<path d="M20.3 4.56875C20.1 4.56875 19.9 4.46875 19.7 4.36875C19.2 4.06875 19.1 3.46875 19.4 2.96875L21.1 0.46875C21.4 -0.0312498 22 -0.13125 22.5 0.16875C23 0.46875 23.1 1.06875 22.8 1.56875L21.1 4.06875C21 4.36875 20.7 4.56875 20.3 4.56875ZM11.3 4.16875C11 4.16875 10.6 3.96875 10.5 3.66875L9.2 1.56875C8.9 1.06875 9 0.46875 9.5 0.16875C10 -0.13125 10.6 -0.0312498 10.9 0.46875L12.2 2.56875C12.5 3.06875 12.4 3.66875 11.9 3.96875C11.7 4.06875 11.5 4.16875 11.3 4.16875Z" fill="#7CB342"/>
</svg>
