<svg width="48" height="48" viewBox="0 0 48 48" fill="none" xmlns="http://www.w3.org/2000/svg">
<path d="M14.1 42H33.9C38.374 42 42 38.373 42 33.9V27H6V33.9C6 38.373 9.626 42 14.1 42Z" fill="#0091EA"/>
<path d="M42 16H6V27H42V16Z" fill="#00B0FF"/>
<path d="M33.9 6H14.1C9.626 6 6 9.626 6 14.1V16H42V14.1C42 9.626 38.374 6 33.9 6Z" fill="#40C4FF"/>
<path d="M22.854 18.943L24.592 15.976L22.994 13.249C22.576 12.534 21.657 12.295 20.942 12.713C20.227 13.131 19.987 14.05 20.406 14.765L22.854 18.943Z" fill="white"/>
<path d="M26.786 12.714C26.07 12.295 25.151 12.535 24.734 13.25L16.09 28H19.567L27.321 14.767C27.74 14.052 27.5 13.133 26.786 12.714Z" fill="white"/>
<path d="M34.521 32.92L26.91 19.933L26.147 21.236C25.703 22.186 25.643 23.26 25.962 24.247L31.934 34.438C32.213 34.914 32.714 35.179 33.229 35.179C33.486 35.179 33.748 35.113 33.986 34.973C34.701 34.554 34.94 33.635 34.521 32.92Z" fill="white"/>
<path d="M25.473 27.919L25.302 27.63C25.154 27.406 24.99 27.196 24.804 27.009H12.3C11.471 27.009 10.8 27.674 10.8 28.493C10.8 29.312 11.471 29.977 12.3 29.977H25.694C25.888 29.324 25.835 28.595 25.473 27.919Z" fill="white"/>
<path d="M16.66 32.961C16.173 32.405 15.47 32.027 14.63 32.002H14.626C14.309 31.993 13.998 32.028 13.694 32.089L13.207 32.92C12.788 33.635 13.028 34.554 13.743 34.973C13.981 35.113 14.243 35.179 14.5 35.179C15.015 35.179 15.517 34.913 15.795 34.438L16.66 32.961Z" fill="white"/>
<path d="M30.196 27.009H35.7C36.529 27.009 37.2 27.674 37.2 28.493C37.2 29.312 36.529 29.977 35.7 29.977H30.306C30.112 29.324 30.01 27.196 30.196 27.009Z" fill="white"/>
</svg>
