<svg width="15" height="15" viewBox="0 0 15 15" fill="none" xmlns="http://www.w3.org/2000/svg">
<rect width="15" height="15" fill="#9E9E9E"/>
<path d="M11.2497 7.9425C11.369 7.9425 11.4861 7.95208 11.6012 7.96917C11.6012 7.97125 11.5991 7.97333 11.5991 7.975C11.5537 8.08804 11.4996 8.19752 11.4373 8.3025L10.9199 9.18C10.6876 9.57628 10.3529 9.9054 9.9496 10.1342C9.54632 10.3629 9.08869 10.4832 8.6229 10.4829H7.59053C7.12478 10.4827 6.66728 10.3622 6.26401 10.1335C5.86074 9.90483 5.5259 9.57597 5.29314 9.18L4.7761 8.3025C4.54313 7.9065 4.42047 7.45728 4.42047 7C4.42047 6.54272 4.54313 6.0935 4.7761 5.6975L5.29314 4.82C5.52554 4.42372 5.8603 4.0946 6.26365 3.86585C6.667 3.63709 7.12468 3.51679 7.59053 3.51708H8.6229C9.0886 3.51725 9.54604 3.63774 9.94924 3.86645C10.3524 4.09517 10.6872 4.42403 10.9199 4.82L11.4373 5.6975C11.4997 5.8025 11.5524 5.91375 11.5991 6.025C11.5991 6.02667 11.6012 6.02875 11.6012 6.03083C11.4849 6.04849 11.3674 6.05741 11.2497 6.0575C10.4788 6.0575 10.188 5.80458 9.85268 5.51333C9.52836 5.23167 9.12636 4.88125 8.3924 4.88125H7.95559C7.42455 4.88125 6.94232 5.07083 6.5972 5.41375C6.2593 5.74917 6.07379 6.20708 6.07379 6.705V7.29292C6.07379 7.79125 6.2593 8.24917 6.5972 8.58417C6.94232 8.92708 7.42455 9.11667 7.95559 9.11667H8.39452C9.12848 9.11667 9.53048 8.76625 9.85437 8.48458C10.1902 8.19167 10.4788 7.94042 11.2497 7.9425ZM11.2518 6.59375C11.4212 6.59375 11.5889 6.57875 11.7523 6.54792C11.7515 6.54625 11.7515 6.54375 11.7515 6.54208C11.7195 6.36847 11.6699 6.19844 11.6033 6.03458C11.9078 5.98754 12.1966 5.87062 12.4464 5.69333C12.4464 5.69167 12.4442 5.68792 12.4442 5.68583C12.3037 5.23451 12.0903 4.80825 11.8122 4.42333C11.5366 4.04273 11.2028 3.70613 10.8227 3.42542C10.0362 2.84466 9.07812 2.53186 8.09398 2.53458C7.47931 2.53458 6.88204 2.65125 6.3217 2.885C5.78131 3.11125 5.29314 3.43292 4.87543 3.84292C4.45773 4.25292 4.12789 4.73 3.89994 5.2625C3.66326 5.813 3.54171 6.40457 3.54251 7.00208C3.54251 7.60542 3.66179 8.19167 3.89994 8.74125C4.13001 9.27208 4.45773 9.75083 4.87543 10.1608C5.29314 10.5708 5.77919 10.8946 6.3217 11.1188C6.88373 11.3504 7.47931 11.4692 8.09398 11.4692C9.08731 11.4692 10.0301 11.1608 10.8227 10.5788C11.2032 10.2983 11.537 9.96152 11.8122 9.58042C12.0892 9.19483 12.3025 8.76876 12.4442 8.31792C12.4442 8.31625 12.4464 8.31208 12.4464 8.31042C12.1966 8.13313 11.9078 8.01621 11.6033 7.96917C11.6717 7.80458 11.7205 7.63417 11.7515 7.46167C11.7536 7.45792 11.7536 7.45583 11.7536 7.45208C12.1226 7.51831 12.4715 7.66575 12.7741 7.88333C13.0649 8.09375 13.0084 8.33125 12.9634 8.47333C12.3233 10.5154 10.3854 12 8.09398 12C5.28168 12 3 9.76042 3 7C3 4.23958 5.27956 2 8.09398 2C10.3854 2 12.3233 3.48458 12.9634 5.52667C13.0084 5.66875 13.0649 5.90792 12.7741 6.11875C12.4717 6.33668 12.1227 6.48403 11.7536 6.54958C11.8079 6.84792 11.8079 7.15375 11.7536 7.45208C11.5882 7.42131 11.4202 7.40596 11.2518 7.40625C9.47572 7.40625 9.56741 8.5825 8.3924 8.5825H7.95559C7.14947 8.5825 6.61842 8.01708 6.61842 7.29292V6.705C6.61842 5.98083 7.14947 5.41583 7.95559 5.41583H8.39452C9.56954 5.41583 9.47784 6.59208 11.2518 6.59375Z" fill="#202020"/>
</svg>
