<svg width="48" height="48" viewBox="0 0 48 48" fill="none" xmlns="http://www.w3.org/2000/svg">
<path d="M33.077 26.1791C32.2426 26.1816 31.4105 26.0905 30.5963 25.9076C31.0709 26.9363 31.4338 28.0132 31.6788 29.1197C32.1298 29.1197 32.5959 29.1197 33.077 29.1197C34.6103 29.1173 36.1332 28.8678 37.5875 28.3808L36.1893 25.6513C35.1809 25.9695 34.1337 26.1471 33.077 26.1791Z" fill="#24A6D6"/>
<path d="M25.3039 23.2535L24.7627 22.6805C23.5888 21.5294 22.6835 20.132 22.1116 18.5885C21.5397 17.045 21.3155 15.3937 21.455 13.7531C21.6085 11.5555 22.415 9.45451 23.7704 7.72105L23.6501 9.8775C23.6485 10.255 23.7882 10.6194 24.0416 10.8986C24.2949 11.1778 24.6434 11.3515 25.0183 11.3855H25.1536C25.53 11.387 25.8932 11.2469 26.1716 10.9928C26.45 10.7388 26.6232 10.3892 26.6571 10.0132L27.1683 3.84546C27.1863 3.62704 27.1566 3.4073 27.0813 3.20156C27.006 2.99581 26.8869 2.809 26.7323 2.65414C26.5677 2.52042 26.3768 2.42308 26.1721 2.36851C25.9674 2.31393 25.7535 2.30335 25.5445 2.33745L19.3952 2.86526C18.9964 2.89925 18.6275 3.09073 18.3695 3.39758C18.1115 3.70442 17.9856 4.1015 18.0195 4.50145C18.0534 4.9014 18.2443 5.27146 18.5502 5.53023C18.8561 5.789 19.252 5.91527 19.6508 5.88128L21.5903 5.71539C19.7639 8.00756 18.6875 10.8093 18.5081 13.738C18.3527 15.7451 18.6309 17.7622 19.3237 19.6516C20.0165 21.541 21.1076 23.2583 22.5225 24.6862L22.9885 25.2441C24.9098 27.2356 26.0152 29.8782 26.0857 32.6484C26.1659 33.9033 26.0337 35.1626 25.6948 36.3732L28.4011 37.7455C28.9833 36.0457 29.2135 34.2446 29.0777 32.4524C28.9854 29.026 27.6426 25.7528 25.3039 23.2535Z" fill="#24A6D6"/>
<path d="M46.4131 23.3139L44.5939 23.4496C46.2539 21.2946 47.2778 18.7156 47.549 16.0059C47.8202 13.2963 47.3279 10.5646 46.1281 8.12166C44.9283 5.67868 43.0691 3.62241 40.7619 2.18667C38.4547 0.750931 35.7922 -0.00666123 33.077 4.4128e-05C31.5434 -0.00261345 30.0196 0.247007 28.5665 0.738969L29.9347 3.45339C31.6512 2.96582 33.457 2.88432 35.2102 3.21529C36.9633 3.54627 38.616 4.2807 40.0383 5.36082C41.4605 6.44094 42.6136 7.83729 43.4066 9.44005C44.1997 11.0428 44.6113 12.8083 44.6089 14.5976C44.6084 17.1833 43.7339 19.6925 42.1281 21.7154L42.2785 19.393C42.2913 19.195 42.2651 18.9964 42.2014 18.8085C42.1377 18.6206 42.0377 18.4471 41.9072 18.298C41.7767 18.1489 41.6181 18.027 41.4406 17.9393C41.2631 17.8516 41.0701 17.7999 40.8727 17.787C40.6752 17.7741 40.4772 17.8004 40.2899 17.8643C40.1026 17.9282 39.9296 18.0285 39.7809 18.1594C39.6322 18.2903 39.5107 18.4493 39.4233 18.6274C39.3359 18.8054 39.2843 18.999 39.2715 19.197L38.8505 25.3497C38.8385 25.5679 38.874 25.7861 38.9545 25.9892C39.035 26.1923 39.1585 26.3755 39.3166 26.5259C39.4517 26.6635 39.6134 26.7719 39.7918 26.8445C39.9702 26.9171 40.1615 26.9524 40.354 26.9482H40.5043L46.6386 26.3148C46.8364 26.296 47.0286 26.238 47.2039 26.1442C47.3792 26.0504 47.5343 25.9227 47.6601 25.7685C47.786 25.6142 47.8801 25.4365 47.937 25.2455C47.9939 25.0546 48.0125 24.8542 47.9918 24.656C47.95 24.2721 47.763 23.9189 47.4693 23.6692C47.1756 23.4194 46.7975 23.2923 46.4131 23.3139Z" fill="#24A6D6"/>
<path d="M3.8189 27.1291H3.93918L10.0885 26.6013C10.2859 26.5845 10.4781 26.5288 10.6541 26.4375C10.8301 26.3462 10.9865 26.2209 11.1142 26.069C11.242 25.9171 11.3386 25.7414 11.3987 25.552C11.4587 25.3626 11.481 25.1632 11.4642 24.9651C11.4474 24.7671 11.3919 24.5743 11.3009 24.3978C11.2098 24.2213 11.085 24.0645 10.9335 23.9364C10.782 23.8082 10.6068 23.7113 10.418 23.6511C10.2292 23.5908 10.0303 23.5685 9.8329 23.5853L7.74304 23.7663C9.71153 22.3097 12.0927 21.5224 14.5389 21.5193C15.3629 21.5243 16.1843 21.6153 16.9896 21.7908C16.5173 20.7626 16.1593 19.6855 15.9221 18.5787C15.471 18.5787 15.0049 18.5787 14.5389 18.5787C11.331 18.5739 8.21188 19.6344 5.66821 21.5947L5.84863 19.6192C5.86507 19.4211 5.84227 19.2216 5.78156 19.0323C5.72084 18.843 5.62339 18.6677 5.49483 18.5163C5.36627 18.3649 5.20914 18.2405 5.03246 18.1503C4.85579 18.0601 4.66307 18.0058 4.4654 17.9906C4.06877 17.9572 3.67509 18.0828 3.3707 18.3401C3.06631 18.5973 2.87605 18.9652 2.84162 19.3629L2.3154 25.5156C2.29876 25.7235 2.32531 25.9327 2.39338 26.1298C2.46146 26.3269 2.56956 26.5077 2.71087 26.6608C2.85218 26.8138 3.02361 26.9358 3.21433 27.0191C3.40505 27.1023 3.61091 27.1449 3.8189 27.1442V27.1291Z" fill="#24A6D6"/>
<path d="M25.3941 38.8765L19.2448 39.2837C18.8461 39.3097 18.4739 39.4935 18.2103 39.7947C17.9467 40.0959 17.8131 40.4898 17.839 40.8897C17.865 41.2897 18.0482 41.6629 18.3485 41.9273C18.6488 42.1918 19.0415 42.3257 19.4403 42.2997L21.7557 42.1338C20.0529 43.5065 17.9981 44.3686 15.8281 44.6208C13.6581 44.873 11.4611 44.505 9.49054 43.5594C7.51995 42.6137 5.85589 41.1287 4.69016 39.2756C3.52443 37.4226 2.90447 35.2769 2.90176 33.0858C2.91259 32.0654 3.05922 31.0511 3.33777 30.0697L0.706646 28.6673C0.240868 30.104 0.00242758 31.6051 0 33.1159C0.0176403 35.847 0.797216 38.5185 2.25047 40.8281C3.70373 43.1377 5.77261 44.9931 8.22291 46.1843C10.6732 47.3754 13.407 47.8548 16.1149 47.568C18.8228 47.2812 21.3966 46.2399 23.5448 44.5617L23.3644 46.3412C23.3436 46.5382 23.3617 46.7375 23.4177 46.9275C23.4736 47.1176 23.5664 47.2947 23.6907 47.4487C23.815 47.6028 23.9683 47.7308 24.1419 47.8254C24.3155 47.92 24.506 47.9793 24.7025 48H24.8679C25.2419 48.0019 25.6032 47.8638 25.8812 47.6129C26.1592 47.3619 26.334 47.016 26.3714 46.6428L27.0029 40.5203C27.0252 40.3021 26.9998 40.0816 26.9285 39.8743C26.8572 39.667 26.7416 39.4778 26.5899 39.3198C26.4382 39.1619 26.2539 39.0391 26.05 38.9599C25.8461 38.8807 25.6274 38.8471 25.4092 38.8614L25.3941 38.8765Z" fill="#24A6D6"/>
</svg>
