<svg width="39" height="38" viewBox="0 0 39 38" fill="none" xmlns="http://www.w3.org/2000/svg">
<path d="M6.19068 6.99999L9.19068 32L1.17169 23.981C-0.0173123 22.792 -0.336312 20.985 0.375687 19.461L6.19068 6.99999Z" fill="#1565C0"/>
<path d="M23.5097 1.319C22.6647 0.473999 21.5197 0 20.3257 0C19.5807 0 18.8467 0.185 18.1907 0.538L6.19067 7V27.343C6.19067 28.404 6.61167 29.421 7.36267 30.171L9.19067 32H31.1907V27L38.1907 16L23.5097 1.319Z" fill="#42A5F5"/>
<path d="M6.19067 6.99999H27.5337C28.5947 6.99999 29.6117 7.42099 30.3617 8.17199L38.1907 16V32H31.1907L6.19067 6.99999Z" fill="#1565C0"/>
<path d="M31.1907 32H9.19067L15.1907 38H31.1907V32Z" fill="#85CBF8"/>
</svg>
