<svg width="32" height="44" viewBox="0 0 32 44" fill="none" xmlns="http://www.w3.org/2000/svg">
<path d="M0 34.9992L15.234 6.43518C15.555 5.83318 16.423 5.84418 16.728 6.45518L22 16.9992L0 34.9992Z" fill="#FF8F00"/>
<path d="M0 34.9912L5.546 0.792183C5.691 -0.102817 6.893 -0.296817 7.31299 0.507183L18 20.9912L0 34.9912Z" fill="#FFA000"/>
<path d="M0.00799561 34.9852L0.207995 34.8282L17.737 20.4872L12.793 11.0112L0.00799561 34.9852Z" fill="#FF6F00"/>
<path d="M0 34.9992L26.666 9.28617C27.225 8.74717 28.158 9.06517 28.272 9.83317L32 34.9992L17 43.7421C16.391 44.0841 15.648 44.0841 15.039 43.7421L0 34.9992Z" fill="#FFC400"/>
</svg>
