<svg width="40" height="41" viewBox="0 0 40 41" fill="none" xmlns="http://www.w3.org/2000/svg">
<path d="M39.982 19.935C40.051 15.674 39.091 10.607 37.091 4.662L35.523 0L33.393 4.433C33.279 4.67 33.149 4.902 33.013 5.131C29.514 2.127 24.974 0.3 20 0.3C8.954 0.3 0 9.25399 0 20.3C0 31.346 8.954 40.3 20 40.3C31.046 40.3 40 31.346 40 20.3C40 20.177 39.984 20.058 39.982 19.935Z" fill="#8BC34A"/>
<path d="M35.385 28.858C32.262 33.16 26.734 33.391 21.531 33.3H14.75H12.812C17.24 31.707 19.875 31.328 22.566 29.9C27.634 27.235 32.644 21.404 33.687 15.338C31.757 21.174 25.908 26.188 20.578 28.227C16.926 29.62 10.33 30.972 10.33 30.972L10.063 30.827C5.57299 28.568 5.43699 18.514 13.6 15.268C17.174 13.845 20.593 14.627 24.454 13.675C28.576 12.663 33.344 9.46699 35.284 5.3C37.456 11.967 40.07 22.406 35.385 28.858ZM11.668 34.745C11.386 35.095 10.955 35.3 10.505 35.3C9.68199 35.3 9.00999 34.623 9.00999 33.8C9.00999 32.977 9.68699 32.3 10.505 32.3C10.846 32.3 11.182 32.418 11.446 32.636C12.086 33.155 12.186 34.105 11.668 34.745Z" fill="white"/>
</svg>
