<svg width="15" height="15" viewBox="0 0 15 15" fill="none" xmlns="http://www.w3.org/2000/svg">
<path d="M2.72442 2.27734C2.61401 2.27734 2.52441 2.40179 2.52441 2.55512V6.47602C2.52441 8.18741 3.46102 9.67497 4.69122 9.77192C5.87063 9.8647 6.87402 8.71523 7.08382 7.18023C7.19782 7.39412 7.31369 7.59289 7.43069 7.77539L6.72483 11.9361C6.71103 12.0189 6.72492 12.1051 6.76272 12.1721C6.80092 12.2382 6.85855 12.2773 6.91975 12.2773H7.94359C8.03639 12.2773 8.11633 12.1905 8.13773 12.0652C8.26193 11.3372 8.45664 10.1963 8.63304 9.16211L8.81508 9.30859C9.24808 9.61998 9.68746 9.77734 10.1245 9.77734C11.5629 9.77734 12.7097 8.01096 12.4995 5.9579C12.3603 4.5979 11.6073 3.47688 10.6405 3.18772C9.51467 2.85077 8.42952 3.6521 7.96312 4.98405C7.96312 4.98405 7.91136 5.14362 7.86976 5.30306C7.53976 4.5125 7.34596 3.69237 7.24436 3.0982C7.20736 2.88153 7.15194 2.48925 7.14554 2.46398C7.11774 2.35203 7.04226 2.27734 6.95686 2.27734H5.92443C5.81403 2.27734 5.72443 2.40179 5.72443 2.55512V6.52756C5.72443 7.18006 5.38187 7.7636 4.91427 7.82693C4.37787 7.89971 3.92442 7.31346 3.92442 6.5829V2.55512C3.92442 2.40179 3.83482 2.27734 3.72442 2.27734H2.72442ZM10.1245 5.05512C10.6759 5.05512 11.1245 5.67818 11.1245 6.44401C11.1245 7.20984 10.6759 7.8329 10.1245 7.8329C9.67946 7.8329 9.26716 7.4602 8.97836 7.1352C9.08376 6.51714 9.1545 6.10319 9.1557 6.09625C9.2693 5.48319 9.66786 5.05512 10.1245 5.05512Z" fill="#202020"/>
</svg>
