<svg width="44" height="42" viewBox="0 0 44 42" fill="none" xmlns="http://www.w3.org/2000/svg">
<path d="M42 35L4.6 40.9L0 10.8L37.2 5.1L42 35Z" fill="#03A9F4"/>
<path d="M37.2 5.1L42 35L4.60001 40.9L4.20001 38L37.2 5.1Z" fill="#039BE5"/>
<path d="M0 10.8L2.4 26.3L20.2 7.7L0 10.8Z" fill="#29B6F6"/>
<path d="M6.29999 38.6L2.29999 12.4L35.6 7.3L39.8 33.3L6.29999 38.6ZM4.59999 14.1L7.99998 36.3L37.5 31.6L34 9.49999L4.59999 14.1Z" fill="white"/>
<path d="M9.10001 24L9.50001 27L34 23.1L33.5 20.1L9.10001 24Z" fill="white"/>
<path d="M14.6 31.3L11.5 35L11.9 30.2C11.9 30.1 11.9 30 12 29.9L17.2 17.2C17.4 16.7 18 16.4 18.5 16.7L19.4 17.1C19.9 17.3 20.2 17.9 19.9 18.4L14.8 31C14.7 31.1 14.7 31.2 14.6 31.3ZM28.7 26.2L19.4 15.3C19 14.9 19.1 14.2 19.5 13.9L20.3 13.3C20.7 12.9 21.4 13 21.7 13.4L31 24.3L28.7 26.2ZM31.6 25C31.6 25 34 25.7 34 28.5C34 30.3 33.5 31 33.5 31C33.5 31 33.1 29.8 31.2 29.1C28.6 28.2 28.7 26.2 28.7 26.2L30.9 25.7L31.6 25Z" fill="white"/>
<path d="M18.4 22L17.2 24.9L19.1 23.1L19.5 22H18.4Z" fill="#03A9F4"/>
<path d="M17.5 27L19.1 23.1L17.2 24.9L16.4 27H17.5Z" fill="#039BE5"/>
<path d="M13.2 27L15.2 22H14.1L12.1 27H13.2Z" fill="#03A9F4"/>
<path d="M31.9 23.8L28.6 20H27.3L30.8 24L31 24.3L28.7 26.2L27.4 24.7L24.2 21H22.9L25.9 24.5L27.9 26.9L28.6 27.6L29.3 27L31.6 25L32.4 24.4L31.9 23.8Z" fill="#039BE5"/>
<path d="M15 17.9V19L20 21.1V20L15 17.9Z" fill="#03A9F4"/>
<path d="M16 30.6L12.9 29.3L12.1 30.1L16 31.7V30.6Z" fill="#039BE5"/>
<path d="M11 28.5V29.6L12.1 30.1L12.9 29.3L11 28.5Z" fill="#03A9F4"/>
<path d="M35.9 9.19999V9.29999L36.6 13.5L37.9 9.89999C37.9 9.79999 38 9.69999 38 9.59999L37.6 7.3C36.8 7.8 36.1 8.59999 35.9 9.19999ZM31.9 29.4C31.7 29.3 31.5 29.2 31.2 29.1C30.7 28.9 30.4 28.8 30.1 28.6L28.8 33L31 32.7L31.9 29.4ZM28.2 35.1L27.7 37.3L29.8 36.9L30.4 34.8L28.2 35.1ZM32.8 18.8V18.9L32.4 20.3L33.5 20.1L33.9 22.3L34.7 19.4L35.2 17.8L34.5 13.4L33.4 16.9L32.8 18.8Z" fill="#0277BD"/>
<path d="M34.5 13.4L35.2 17.8L36.5 13.5L35.8 9.3C35.3 10.7 34.8 12.1 34.7 12.3L34.5 13.4ZM28.8 33L28.2 35.1L30.4 34.8L31 32.7L28.8 33ZM33.9 22.3L33.5 20.1L32.4 20.3L31.5 23.5L33.6 23.2L33.9 22.3ZM31.6 25L31 25.3L30.1 28.6C30.4 28.8 30.8 29 31.2 29.1C31.5 29.2 31.7 29.3 31.9 29.4L32.9 25.8C32.3 25.2 31.6 25 31.6 25Z" fill="#90A4AE"/>
<path d="M32.9 25.8L33.6 23.1L31.4 23.4L30.8 25.6L31.6 24.9C31.6 25 32.3 25.2 32.9 25.8Z" fill="#0277BD"/>
<path d="M31.6 25L30.8 25.7L30 28.6C30.3 28.8 30.7 29 31.1 29.1C31.4 29.2 31.6 29.3 31.8 29.4L32.8 25.8C32.3 25.2 31.6 25 31.6 25Z" fill="#90A4AE"/>
<path d="M34 1.5C28 1.5 24 3 24 3V3.5C32.6 3.5 33.7 6.7 34 7.49999V1.5Z" fill="#78909C"/>
<path d="M42 3.3C41.8 3.7 41.6 4 41 4C39.9 4 39 2.4 39 2.4C37.3 1.3 34 0 31 0C25 0 23 1.5 23 1.5V2C27.2 2 28.8 2.4 30.3 3.5C32.7 5.3 32.5 9.39999 31.6 12.6L29.8 18L32.7 18.9L34.8 12.3C34.9 12.2 35.4 10.7 35.9 9.19999C36.2 8.39999 37 7.4 38 7.1C38.6 6.9 39.4 6.8 39.9 7.2C40.4 7.6 40.4 7.9 40.3 8.3L42.3 8.89999L44 4L42 3.3Z" fill="#D7DEE2"/>
<path d="M41 4C39.9 4 39 2.4 39 2.4L38.2 4.9C37.9 6 36.7 6.49999 35.7 6.19999L31.4 4.8C31.9 5.7 32.1 6.69999 32.2 7.89999L36 9.09999C36.3 8.49999 36.8 7.79999 37.5 7.39999C37.7 7.29999 37.9 7.19999 38.1 7.09999C38.7 6.89999 39.5 6.79999 40 7.19999C40.5 7.59999 40.5 7.89999 40.4 8.29999L42 3.3C41.8 3.7 41.6 4 41 4Z" fill="#90A4AE"/>
<path d="M29.8 18L21.1 38.3C20.6 39.6 21.3 41.2 22.7 41.6L23.6 41.9C25 42.3 26.4 41.5 26.7 40.5L32.7 18.9L29.8 18Z" fill="#424242"/>
</svg>
